PathFileType	4	(X/Y/Z)	D:\Share\Shared_Data\Ergonomics\Sit To Stand Pertubation\S1\Unperturbed_NoHarness.trc
DataRate	CameraRate	NumFrames	NumMarkers	Units	OrigDataRate	OrigDataStartFrame	OrigNumFrames	
100	100	17	18	m	100	1281	281
Frame#	Time	R_Thigh_Med			R_ASIS			R_Pelvis			V_Sacral			L_Pelvis			L_ASIS			Clavical			R_Acromium			L_Acromium			Sternum			Torso			R_Thigh_Lat			R_Thigh			R_Shank_Med			R_Shank_Lat			R_Shank			R_Heel			R_Toe			
		X1	Y1	Z1	X2	Y2	Z2	X3	Y3	Z3	X4	Y4	Z4	X5	Y5	Z5	X6	Y6	Z6	X7	Y7	Z7	X8	Y8	Z8	X9	Y9	Z9	X10	Y10	Z10	X11	Y11	Z11	X12	Y12	Z12	X13	Y13	Z13	X14	Y14	Z14	X15	Y15	Z15	X16	Y16	Z16	X17	Y17	Z17	X18	Y18	Z18	

1281	12.8	0.32986038	0.41514206	0.015860909	0.042020077	0.63224518	0.081935089	-0.03947118	0.63475214	0.11541372	-0.14361415	0.56905029	-0.01926359	-0.041310349	0.63112708	-0.16605649	0.053471867	0.6436474	-0.11856232	0.067086945	0.96644604	-0.023353947	0.0074809599	1.0433618	0.12485493	-0.041575203	0.99391461	-0.2214964	0.051883392	0.98108704	0.078623123	0.063718899	0.97296698	-0.082765045	0.32638763	0.43447354	0.13752483	0.19986096	0.55095587	0.084210258	0.3179187	0.098052467	0.070036629	0.2907182	0.10128873	0.14908385	0.31293134	0.31285648	0.15738617	0.24378043	0.032845142	0.09335688	0.44916385	0.051468151	0.11712699
1282	12.81	0.32985861	0.41513177	0.015814336	0.042017757	0.63223621	0.08192205	-0.039483997	0.63477124	0.11539278	-0.14363051	0.5690423	-0.019265162	-0.041348591	0.63112183	-0.16607213	0.053439743	0.64364642	-0.11856684	0.067412834	0.96642804	-0.023288988	0.007891861	1.0433285	0.124957	-0.041272518	0.99402826	-0.22141678	0.052244743	0.98104681	0.078703552	0.064044601	0.97295459	-0.082705467	0.32639224	0.43446906	0.13747725	0.19986276	0.55096844	0.084171661	0.31791785	0.098042694	0.070029343	0.29072049	0.10128876	0.14907248	0.31293759	0.31285703	0.15735489	0.2437832	0.032846939	0.093355652	0.44917007	0.051469425	0.11712231
1283	12.82	0.32985727	0.41512271	0.015784366	0.041968033	0.63220837	0.081912682	-0.039501766	0.63478503	0.1153763	-0.1436498	0.56903094	-0.019266336	-0.041394741	0.63111353	-0.166092	0.05340337	0.64364606	-0.11857238	0.06775338	0.96640253	-0.023218811	0.0083180485	1.0432966	0.1250581	-0.040934307	0.99414813	-0.22133806	0.052618832	0.98100104	0.078783333	0.064397224	0.97293219	-0.08263726	0.32639221	0.43446625	0.13744756	0.19986311	0.5509809	0.084145668	0.31791766	0.098033707	0.070024498	0.29072238	0.10128867	0.1490627	0.312936	0.31285361	0.15733492	0.24378557	0.032849449	0.093355659	0.44917566	0.051471493	0.11711845
1284	12.83	0.32985617	0.41511597	0.015772976	0.041905968	0.63217798	0.081904869	-0.039523857	0.63479291	0.11536651	-0.14367184	0.56901666	-0.019265951	-0.041447536	0.63110339	-0.16611476	0.05336385	0.64364667	-0.11857743	0.068111176	0.96636932	-0.023144337	0.0087620077	1.0432656	0.12515956	-0.040562008	0.99427277	-0.22126102	0.053007462	0.98094727	0.078862411	0.064777473	0.97290002	-0.082562004	0.32638751	0.43446558	0.13743771	0.19986316	0.5509939	0.084133888	0.31791849	0.0980261	0.070023178	0.29072403	0.10128826	0.14905623	0.31292676	0.31284747	0.15732733	0.24378748	0.032852249	0.093356567	0.44918008	0.051473923	0.1171157
1285	12.84	0.32985464	0.41511255	0.015781692	0.041861301	0.63215948	0.081896339	-0.03955101	0.63479492	0.11536459	-0.14369678	0.56899976	-0.019262987	-0.041505913	0.63109229	-0.16613867	0.053321262	0.64364832	-0.1185804	0.068489647	0.96632635	-0.023065548	0.0092285986	1.0432343	0.12526301	-0.040154335	0.99440057	-0.22118335	0.053413071	0.98088342	0.078940872	0.065184555	0.97286029	-0.082481728	0.32637845	0.43446811	0.13744904	0.19986339	0.5510083	0.084136719	0.31792047	0.098020546	0.070026657	0.29072513	0.10128751	0.14905495	0.31290982	0.31284	0.15733342	0.24378879	0.032855053	0.093357872	0.44918298	0.051475983	0.11711403
1286	12.85	0.32985153	0.41511346	0.015811463	0.041846882	0.63216003	0.081886086	-0.039585407	0.63479218	0.11537041	-0.14372508	0.56898029	-0.019256821	-0.041569496	0.6310816	-0.166162	0.053274391	0.64365149	-0.11857987	0.068892448	0.96627167	-0.022981701	0.0097230701	1.0432004	0.12536979	-0.03970829	0.9945304	-0.22110153	0.053838314	0.98080811	0.079019524	0.065618507	0.972815	-0.082397354	0.32636493	0.43447501	0.13748195	0.19986368	0.5510246	0.084153702	0.31792389	0.098017754	0.070036407	0.29072491	0.1012868	0.14906071	0.31288489	0.31283243	0.15735426	0.24378923	0.032857685	0.093359146	0.44918369	0.05147707	0.11711337
1287	12.86	0.3298457	0.41511932	0.015862597	0.041855152	0.63217719	0.081875008	-0.039630436	0.63478577	0.11538249	-0.14375771	0.56895746	-0.019247355	-0.041638664	0.63107227	-0.16618324	0.053220909	0.64365649	-0.11857472	0.069322777	0.96620508	-0.022891838	0.01024863	1.0431624	0.12548101	-0.039220463	0.99466229	-0.22101286	0.054286087	0.98072028	0.079100258	0.066081429	0.97276398	-0.082308754	0.32634689	0.4344874	0.13753606	0.1998634	0.55104382	0.084183754	0.31792886	0.098018486	0.070054054	0.29072226	0.10128673	0.1490752	0.31285162	0.31282565	0.1573909	0.24378835	0.032860085	0.093360313	0.44918179	0.051477215	0.11711361
1288	12.87	0.32983618	0.41512994	0.015934877	0.041855885	0.63219788	0.08186628	-0.039689739	0.63477692	0.11539858	-0.14379597	0.56893011	-0.019234968	-0.041714115	0.63106512	-0.16620084	0.053157665	0.6436637	-0.11856448	0.069783806	0.96612726	-0.022795311	0.010807032	1.0431188	0.12559795	-0.038686703	0.99479681	-0.22091512	0.054759926	0.98061914	0.079185944	0.066577339	0.97270502	-0.082215157	0.32632413	0.4345061	0.13761053	0.19986157	0.55106665	0.084225189	0.31793515	0.098023193	0.070081009	0.29071616	0.10128754	0.14909969	0.3128096	0.3128205	0.15744406	0.24378589	0.032862427	0.093361786	0.44917722	0.051476875	0.11711449
1289	12.88	0.32982266	0.41514432	0.01602766	0.041803764	0.6322019	0.081864441	-0.039766224	0.6347655	0.11541663	-0.14384192	0.56889673	-0.019220728	-0.041796341	0.63105939	-0.16621281	0.053081158	0.64367322	-0.11854937	0.070279427	0.96603729	-0.022691898	0.011401428	1.0430684	0.12572218	-0.038101944	0.99493481	-0.22080641	0.05526424	0.98050488	0.079279907	0.067111641	0.97263434	-0.0821157	0.32629669	0.43453101	0.13770418	0.19985733	0.55109387	0.084276077	0.31794263	0.09803186	0.070118271	0.2907059	0.10128923	0.14913461	0.31275848	0.31281726	0.15751454	0.24378189	0.032864971	0.093364243	0.44916989	0.051476501	0.11711566
1290	12.89	0.3298053	0.41516122	0.016139832	0.041665916	0.63217499	0.08187307	-0.039861702	0.63475116	0.11543508	-0.14389795	0.56885504	-0.019206554	-0.041885559	0.63105371	-0.1662175	0.052987923	0.64368506	-0.11852998	0.070814354	0.96593286	-0.022581343	0.012037286	1.0430098	0.12585524	-0.037461147	0.9950777	-0.22068581	0.05580418	0.98037921	0.079385117	0.067690468	0.9725484	-0.082009842	0.3262644	0.43456161	0.13781572	0.1998504	0.55112604	0.084334488	0.31795105	0.098044159	0.070166267	0.29069104	0.10129199	0.14917929	0.31269824	0.31281561	0.1576035	0.24377673	0.03286784	0.09336821	0.44915985	0.051476421	0.11711696
1291	12.9	0.32978452	0.41517969	0.016269917	0.041445538	0.63211951	0.08189241	-0.039977192	0.63473254	0.11545274	-0.14396672	0.5688028	-0.01919488	-0.041981846	0.63104657	-0.16621396	0.052874733	0.64369861	-0.118507	0.071393387	0.96581281	-0.022462805	0.012721044	1.0429408	0.12599786	-0.036760098	0.99522736	-0.22055399	0.056385101	0.98024414	0.079503517	0.068319374	0.97244586	-0.081897423	0.32622681	0.43459732	0.137944	0.19984044	0.55116327	0.084398941	0.31796033	0.098059509	0.070224945	0.29067123	0.10129639	0.14923206	0.31262924	0.3128147	0.15771181	0.2437709	0.032870972	0.093374069	0.44914679	0.051476624	0.11711865
1292	12.91	0.32976053	0.41519971	0.016416485	0.04117284	0.63205151	0.081919495	-0.040113197	0.63470923	0.11546882	-0.14405064	0.56873743	-0.019187901	-0.042085274	0.63103632	-0.16620226	0.052738873	0.64371375	-0.11848103	0.072020775	0.96567737	-0.0223349	0.013459639	1.0428594	0.12614991	-0.035995289	0.99538599	-0.22041292	0.057012135	0.9801001	0.079635597	0.069001915	0.97232794	-0.081778648	0.32618225	0.43463721	0.13808884	0.19982552	0.5512052	0.084468887	0.31797003	0.098077232	0.070293617	0.29064563	0.10130228	0.14929063	0.31255161	0.3128136	0.15783907	0.24376459	0.032874088	0.093382027	0.44913022	0.05147678	0.11712106
1293	12.92	0.32973328	0.41522165	0.016578457	0.040881657	0.6319895	0.081949951	-0.040269508	0.63468103	0.11548331	-0.14415167	0.56865771	-0.01918704	-0.042196266	0.63102148	-0.16618402	0.052578686	0.64372998	-0.1184525	0.072700439	0.965526	-0.02219644	0.014260849	1.0427635	0.1263105	-0.035162693	0.99555609	-0.22026506	0.057690166	0.97994397	0.079780365	0.069739693	0.97219788	-0.081654213	0.32612796	0.43467993	0.13825125	0.19980099	0.55125116	0.084545029	0.3179798	0.098096649	0.070371025	0.29061316	0.10130743	0.14935277	0.31246503	0.31281116	0.15798306	0.24375798	0.032876637	0.093391685	0.44911029	0.051476883	0.11712437
1294	12.93	0.32970224	0.41524628	0.016755133	0.040597519	0.63194702	0.081979767	-0.040445229	0.63464832	0.11549718	-0.14427122	0.56856244	-0.019192896	-0.042316326	0.6310014	-0.16616296	0.052393955	0.64374713	-0.11842175	0.073436325	0.96535632	-0.022047279	0.015132401	1.0426526	0.1264784	-0.034257019	0.99573987	-0.22011188	0.058423744	0.97977002	0.079935677	0.070533432	0.97205884	-0.081525185	0.3260603	0.43472336	0.13843307	0.19976056	0.55130029	0.084629379	0.3179888	0.098117195	0.070455414	0.29057254	0.10130772	0.14941637	0.31236856	0.31280612	0.15814011	0.24375105	0.032878006	0.093401932	0.44908823	0.051477692	0.11712868
1295	12.94	0.32966589	0.41527377	0.016946089	0.040334606	0.63193127	0.082006401	-0.040639442	0.63461176	0.11551199	-0.14441008	0.56845111	-0.019205513	-0.042448284	0.63097589	-0.16614433	0.052185959	0.64376471	-0.11838931	0.074232185	0.96516644	-0.021888403	0.016080757	1.0425258	0.12665266	-0.033272884	0.9959386	-0.21995393	0.059216824	0.97957159	0.080099564	0.071384186	0.9719126	-0.081392365	0.32597546	0.43476535	0.13863589	0.19969791	0.55135187	0.084724632	0.31799643	0.098138123	0.070545021	0.29052319	0.10129858	0.14947913	0.31226111	0.31279678	0.15830592	0.24374388	0.032877975	0.093411476	0.44906549	0.051480392	0.11713396
1296	12.95	0.32962189	0.41530353	0.017151262	0.040096233	0.63194202	0.082029137	-0.04085215	0.63457159	0.11552904	-0.14456825	0.56832343	-0.019224693	-0.042595757	0.63094537	-0.16613383	0.051957375	0.64378162	-0.11835603	0.075091034	0.96495514	-0.021721497	0.017111242	1.0423834	0.12683314	-0.032206669	0.99615149	-0.21979141	0.060072941	0.97934369	0.080271263	0.072294701	0.97175751	-0.081255241	0.32587054	0.43480408	0.13885985	0.19960847	0.55140552	0.08483326	0.31800183	0.098158379	0.070638275	0.29046521	0.10127654	0.14953827	0.31214072	0.31278101	0.15847694	0.2437364	0.032876675	0.093419647	0.44904352	0.05148616	0.11713986
1297	12.96	0.32956689	0.41533368	0.017370872	0.039878262	0.63197412	0.08204866	-0.041084156	0.63452795	0.11554895	-0.14474451	0.5681803	-0.01925008	-0.042761726	0.63091083	-0.16613701	0.0517122	0.64379602	-0.11832295	0.076015968	0.96472144	-0.021548105	0.018228781	1.0422255	0.12702052	-0.031056511	0.99637622	-0.21962352	0.060995701	0.97908423	0.080451347	0.07327108	0.97158612	-0.081111404	0.32574393	0.43483832	0.13910294	0.19949034	0.55146106	0.084956238	0.3180043	0.09817675	0.070734222	0.29039877	0.10123966	0.14959114	0.31200504	0.31275674	0.15865091	0.24372841	0.032874226	0.093426598	0.44902328	0.051496033	0.1171457
